<?xml version="1.0" encoding="UTF-8"?>
<svg id="Layer_1" xmlns="http://www.w3.org/2000/svg" version="1.1" xmlns:xlink="http://www.w3.org/1999/xlink" viewBox="0 0 32 32">
  <!-- Generator: Adobe Illustrator 29.0.0, SVG Export Plug-In . SVG Version: 2.1.0 Build 186)  -->
  <defs>
    <style>
      .st0 {
        fill: url(#linear-gradient1);
      }

      .st1 {
        fill: url(#linear-gradient);
      }
    </style>
    <linearGradient id="linear-gradient" x1="10" y1="30.8" x2="10" y2="1" gradientUnits="userSpaceOnUse">
      <stop offset="0" stop-color="#3980f6"/>
      <stop offset="1" stop-color="#15cff6"/>
    </linearGradient>
    <linearGradient id="linear-gradient1" x1="21.8" y1="31" x2="21.8" y2="1.2" xlink:href="#linear-gradient"/>
  </defs>
  <path class="st1" d="M3.2,19.6C7.7,14.1,12.5,8.6,17,3.3c.2-.3,1.4-1.6,2-2.3h-7.2C5.9,1,1,5.8,1,11.8v8.4c0,5.2,3.7,9.5,8.6,10.6l3.6-11.2H3.2Z"/>
  <path class="st0" d="M22.3,1.2l-1.6,4.9c-.3,1-.7,2-1,3l-1,2.9h.5s0,0,0,0h9.5L12.6,31h7.6c6,0,10.8-4.8,10.8-10.8v-8.4c0-5.2-3.7-9.6-8.7-10.6Z"/>
</svg>