<?xml version="1.0" encoding="UTF-8"?>
<svg id="Layer_1" xmlns="http://www.w3.org/2000/svg" version="1.1" xmlns:xlink="http://www.w3.org/1999/xlink" viewBox="0 0 1490 250">
  <!-- Generator: Adobe Illustrator 29.0.0, SVG Export Plug-In . SVG Version: 2.1.0 Build 186)  -->
  <defs>
    <style>
      .st0 {
        fill: #0071bc;
      }

      .st1 {
        fill: url(#linear-gradient1);
      }

      .st2 {
        fill: #0d193e;
      }

      .st3 {
        fill: url(#linear-gradient);
      }
    </style>
    <linearGradient id="linear-gradient" x1="83.9" y1="4.4" x2="83.9" y2="247.7" gradientTransform="translate(0 250) scale(1 -1)" gradientUnits="userSpaceOnUse">
      <stop offset="0" stop-color="#3980f6"/>
      <stop offset="1" stop-color="#15cff6"/>
    </linearGradient>
    <linearGradient id="linear-gradient1" x1="180.1" y1="2.5" x2="180.1" y2="246" gradientTransform="translate(0 250) scale(1 -1)" gradientUnits="userSpaceOnUse">
      <stop offset="0" stop-color="#3980f6"/>
      <stop offset="1" stop-color="#15cff6"/>
    </linearGradient>
  </defs>
  <g>
    <g>
      <path class="st2" d="M345.5,109.6v-33.3h29.9c2.9,0,5.3-2.4,5.3-5.3v-29.9c0-2.9-2.4-5.3-5.3-5.3h-29.9c-2.9,0-5.3,2.4-5.3,5.3v89.1h-33.3V41c0-21.3,17.3-38.6,38.6-38.6h29.9c21.3,0,38.6,17.3,38.6,38.6v29.9c0,21.3-17.3,38.6-38.6,38.6h-29.9Z"/>
      <path class="st2" d="M480.4,22.8v33.3h-20.8c-2.9,0-5.3,2.4-5.3,5.3v68.7h-33.3V61.4c0-21.3,17.3-38.6,38.6-38.6h20.8,0Z"/>
      <path class="st2" d="M528.1,130.2c-21.3,0-38.6-17.3-38.6-38.6v-30.1c0-21.3,17.3-38.6,38.6-38.6h30.1c21.3,0,38.6,17.3,38.6,38.6v68.7h-33.4V61.4c0-2.9-2.4-5.3-5.3-5.3h-30.1c-2.9,0-5.3,2.4-5.3,5.3v30.1c0,2.9,2.4,5.3,5.3,5.3h30.1v33.3h-30.1,0Z"/>
      <path class="st2" d="M607.8,130.2V2.6h33.3v20.2h35.2c21.3,0,38.8,17.3,38.8,38.6v68.7h-33.3V61.4c0-2.9-2.5-5.3-5.5-5.3h-35.2v74h-33.4Z"/>
      <path class="st2" d="M726.1,2.6h33.9v20.2h-33.9V2.6ZM726.1,130.2V27.4h33.3v102.8h-33.3Z"/>
      <path class="st2" d="M814.3,97v33.3h-5.3c-21.3,0-38.6-17.3-38.6-38.6s-.2-59.4-.2-89.1h33.3c0,29.7.2,59.4.2,89.1s2.4,5.3,5.3,5.3h5.3Z"/>
      <path class="st2" d="M909.8,109.6v-33.3h29.9c2.9,0,5.3-2.4,5.3-5.3v-29.9c0-2.9-2.4-5.3-5.3-5.3h-29.9c-2.9,0-5.3,2.4-5.3,5.3v89.1h-33.3V41c0-21.3,17.3-38.6,38.6-38.6h29.9c21.3,0,38.6,17.3,38.6,38.6v29.9c0,21.3-17.3,38.6-38.6,38.6h-29.9Z"/>
      <path class="st2" d="M1254,96.8c2.9,0,5.3-2.4,5.3-5.3V22.8h33.3v68.7c0,21.3-17.3,38.6-38.6,38.6h-26.2c-8.2,0-17.7-5.1-22.1-12-4.4,6.9-13.8,12-22.1,12h-26.2c-21.3,0-38.6-17.3-38.6-38.6V22.8h33.2v68.7c0,2.9,2.6,5.3,5.5,5.3h26.2c2.9,0,5.3-2.4,5.3-5.3V22.8h33.3v68.7c0,2.9,2.4,5.3,5.5,5.3h26.2,0Z"/>
      <path class="st2" d="M1062.6,20.2c21.7,0,39.4,17.7,39.4,39.4v30.7c0,21.7-17.7,39.4-39.4,39.4h-30.5c-21.7,0-39.6-17.7-39.6-39.4v-30.7c0-21.7,17.8-39.4,39.6-39.4h30.5ZM1032.1,54.2c-3,0-5.6,2.4-5.6,5.4v30.7c0,3,2.6,5.4,5.6,5.4h30.5c3,0,5.4-2.4,5.4-5.4v-30.7c0-3-2.4-5.4-5.4-5.4h-30.5Z"/>
      <path class="st2" d="M1401.4,91.7h-33.4l8.9-28.8c1.1-3.7-1.1-6.7-4.9-6.7h-29.9c-2.9,0-5.3,2.4-5.3,5.3v30.1c0,2.9,2.4,5.3,5.3,5.3h68.2v33.3h-68.2c-21.3,0-38.6-17.3-38.6-38.6v-30.1c0-21.3,17.3-38.6,38.6-38.6h29.9c23.7,0,45.2,18.6,36.6,45.9l-7.3,23h0Z"/>
      <path class="st2" d="M1480,22.8v33.3h-20.8c-2.9,0-5.3,2.4-5.3,5.3v68.7h-33.3V61.4c0-21.3,17.3-38.6,38.6-38.6h20.8Z"/>
    </g>
    <g>
      <path class="st0" d="M319.8,194.1v15.8h21.3v10h-21.3v16.7h24v10.3h-36.6v-63.2h36.6v10.3h-24Z"/>
      <path class="st0" d="M422.8,247.1h-12.7l-28.7-43.3v43.3h-12.7v-63.2h12.7l28.7,43.4v-43.4h12.7v63.2h0Z"/>
      <path class="st0" d="M491.8,183.9v10.2h-16.8v52.9h-12.7v-52.9h-16.8v-10.2h46.3Z"/>
      <path class="st0" d="M527.3,194.1v15.8h21.3v10h-21.3v16.7h24v10.3h-36.6v-63.2h36.6v10.3h-24Z"/>
      <path class="st0" d="M608.9,247.1l-13.9-24.6h-6v24.6h-12.7v-63.1h23.7c4.9,0,9,.9,12.5,2.6,3.4,1.7,6,4,7.7,7s2.6,6.2,2.6,9.8-1.2,7.9-3.6,11.3-6,5.7-10.8,6.9l15.1,25.6h-14.7ZM589,213h10.6c3.4,0,6-.8,7.7-2.5s2.5-4,2.5-6.9-.8-5.1-2.5-6.7c-1.7-1.6-4.2-2.4-7.7-2.4h-10.6v18.5h0Z"/>
      <path class="st0" d="M691.5,213c-1.6,3-4.1,5.3-7.5,7.2-3.4,1.8-7.7,2.7-12.9,2.7h-10.6v24.2h-12.7v-63.1h23.2c4.9,0,9,.8,12.5,2.5,3.4,1.7,6,4,7.7,7,1.7,3,2.6,6.3,2.6,10s-.8,6.5-2.4,9.5h0ZM678.3,210.2c1.7-1.6,2.5-3.8,2.5-6.7,0-6.2-3.4-9.2-10.3-9.2h-10v18.4h10c3.5,0,6.1-.8,7.8-2.4h0Z"/>
      <path class="st0" d="M749,247.1l-13.9-24.6h-6v24.6h-12.7v-63.1h23.7c4.9,0,9,.9,12.5,2.6,3.4,1.7,6,4,7.7,7s2.6,6.2,2.6,9.8-1.2,7.9-3.6,11.3-6,5.7-10.8,6.9l15.1,25.6h-14.7ZM729.1,213h10.6c3.4,0,6-.8,7.7-2.5s2.5-4,2.5-6.9-.8-5.1-2.5-6.7c-1.7-1.6-4.2-2.4-7.7-2.4h-10.6v18.5h0Z"/>
      <path class="st0" d="M800.7,183.9v63.1h-12.7v-63.1h12.7Z"/>
      <path class="st0" d="M836.6,245.4c-3.5-1.5-6.3-3.7-8.4-6.5s-3.1-6.2-3.2-10h13.6c.2,2.6,1.1,4.6,2.8,6.2s3.9,2.3,6.8,2.3,5.3-.7,7-2.1,2.5-3.3,2.5-5.6-.6-3.4-1.7-4.6c-1.2-1.2-2.6-2.2-4.3-2.8-1.7-.7-4.1-1.5-7.1-2.3-4.1-1.2-7.4-2.4-10-3.6-2.6-1.2-4.8-2.9-6.6-5.3-1.8-2.4-2.8-5.6-2.8-9.5s.9-7,2.8-9.8c1.9-2.8,4.5-4.9,7.9-6.4s7.2-2.2,11.6-2.2c6.5,0,11.8,1.6,15.9,4.8,4.1,3.2,6.3,7.6,6.7,13.2h-13.9c-.1-2.2-1-4-2.8-5.4-1.7-1.4-4-2.1-6.8-2.1s-4.4.6-5.9,1.9c-1.5,1.3-2.2,3.1-2.2,5.5s.6,3.1,1.7,4.2,2.5,2,4.2,2.7,4,1.5,7,2.4c4.1,1.2,7.4,2.4,10,3.6,2.6,1.2,4.8,3,6.7,5.4s2.8,5.6,2.8,9.5-.9,6.5-2.6,9.4c-1.8,2.9-4.3,5.2-7.7,6.9-3.4,1.7-7.4,2.6-12,2.6s-8.4-.8-11.9-2.3h0Z"/>
      <path class="st0" d="M908,194.1v15.8h21.3v10h-21.3v16.7h24v10.3h-36.6v-63.2h36.6v10.3h-24Z"/>
    </g>
  </g>
  <g>
    <path class="st3" d="M28.4,154c36.1-44.4,75.9-89.4,112.7-132.7,2-2.4,11.8-13.1,16.6-19h-59.1C50,2.3,10,41.9,10,90.6v68.7c0,42.4,30.3,77.9,70.4,86.3l29.2-91.6H28.4Z"/>
    <path class="st1" d="M184.3,4l-13.4,40.3c-2.9,8.2-5.7,16.3-8.2,24.5l-7.8,23.3h4.3c.1,0,.2,0,.3.1h77.3L105,247.5h62c48.7,0,88.3-39.6,88.3-88.3v-68.7c0-42.8-30.5-78.5-70.9-86.5h0Z"/>
  </g>
</svg>