<?xml version="1.0" encoding="UTF-8"?>
<svg id="Layer_1" data-name="Layer 1" xmlns="http://www.w3.org/2000/svg" xmlns:xlink="http://www.w3.org/1999/xlink" viewBox="0 0 1920 1920">
  <defs>
    <style>
      .cls-1 {
        fill: #0071bc;
      }

      .cls-2 {
        fill: url(#linear-gradient-2);
      }

      .cls-3 {
        fill: #0d193e;
      }

      .cls-4 {
        fill: url(#linear-gradient);
      }
    </style>
    <linearGradient id="linear-gradient" x1="298.88" y1="1080.63" x2="298.88" y2="837.31" gradientUnits="userSpaceOnUse">
      <stop offset="0" stop-color="#3980f6"/>
      <stop offset="1" stop-color="#15cff6"/>
    </linearGradient>
    <linearGradient id="linear-gradient-2" x1="395.12" y1="1082.55" x2="395.12" y2="839.03" xlink:href="#linear-gradient"/>
  </defs>
  <g>
    <g>
      <path class="cls-3" d="M560.48,944.57v-33.35h29.89c2.92,0,5.29-2.37,5.29-5.29v-29.89c0-2.92-2.37-5.29-5.29-5.29h-29.89c-2.92,0-5.29,2.37-5.29,5.29v89.13h-33.35v-89.13c0-21.32,17.31-38.64,38.64-38.64h29.89c21.33,0,38.64,17.32,38.64,38.64v29.89c0,21.33-17.31,38.64-38.64,38.64h-29.89Z"/>
      <path class="cls-3" d="M695.36,857.81v33.35h-20.78c-2.92,0-5.29,2.37-5.29,5.29v68.72h-33.35v-68.72c0-21.32,17.31-38.64,38.64-38.64h20.78Z"/>
      <path class="cls-3" d="M743.11,965.17c-21.32,0-38.64-17.31-38.64-38.64v-30.08c0-21.32,17.32-38.64,38.64-38.64h30.07c21.33,0,38.64,17.31,38.64,38.64v68.72h-33.36v-68.72c0-2.92-2.37-5.29-5.29-5.29h-30.07c-2.92,0-5.29,2.37-5.29,5.29v30.08c0,2.92,2.37,5.29,5.29,5.29h30.07v33.35h-30.07Z"/>
      <path class="cls-3" d="M822.77,965.17v-127.59h33.35v20.23h35.18c21.33,0,38.82,17.31,38.82,38.64v68.72h-33.35v-68.72c0-2.92-2.55-5.29-5.47-5.29h-35.18v74h-33.35Z"/>
      <path class="cls-3" d="M941.07,837.58h33.9v20.23h-33.9v-20.23ZM941.07,965.17v-102.8h33.35v102.8h-33.35Z"/>
      <path class="cls-3" d="M1029.29,931.99v33.35h-5.29c-21.33,0-38.64-17.31-38.64-38.64,0-29.89-.18-59.42-.18-89.13h33.35c0,29.71.18,59.42.18,89.13,0,2.92,2.37,5.29,5.29,5.29h5.29Z"/>
      <path class="cls-3" d="M1124.8,944.57v-33.35h29.89c2.92,0,5.29-2.37,5.29-5.29v-29.89c0-2.92-2.37-5.29-5.29-5.29h-29.89c-2.92,0-5.29,2.37-5.29,5.29v89.13h-33.35v-89.13c0-21.32,17.31-38.64,38.64-38.64h29.89c21.33,0,38.64,17.32,38.64,38.64v29.89c0,21.33-17.31,38.64-38.64,38.64h-29.89Z"/>
      <path class="cls-3" d="M1468.97,931.81c2.92,0,5.29-2.37,5.29-5.29v-68.71h33.35v68.71c0,21.33-17.31,38.64-38.64,38.64h-26.25c-8.2,0-17.68-5.1-22.05-12.03-4.37,6.92-13.85,12.03-22.05,12.03h-26.25c-21.32,0-38.64-17.31-38.64-38.64v-68.71h33.17v68.71c0,2.92,2.55,5.29,5.47,5.29h26.25c2.92,0,5.29-2.37,5.29-5.29v-68.71h33.35v68.71c0,2.92,2.37,5.29,5.47,5.29h26.25Z"/>
      <path class="cls-3" d="M1277.59,855.23c21.74,0,39.39,17.65,39.39,39.39v30.66c0,21.74-17.65,39.39-39.39,39.39h-30.47c-21.74,0-39.57-17.65-39.57-39.39v-30.66c0-21.74,17.84-39.39,39.57-39.39h30.47ZM1247.12,889.23c-2.97,0-5.57,2.42-5.57,5.39v30.66c0,2.97,2.6,5.39,5.57,5.39h30.47c2.97,0,5.39-2.42,5.39-5.39v-30.66c0-2.97-2.42-5.39-5.39-5.39h-30.47Z"/>
      <path class="cls-3" d="M1616.44,926.71h-33.36l8.93-28.8c1.09-3.65-1.09-6.74-4.92-6.74h-29.89c-2.92,0-5.29,2.37-5.29,5.29v30.08c0,2.92,2.37,5.29,5.29,5.29h68.17v33.35h-68.17c-21.32,0-38.64-17.31-38.64-38.64v-30.08c0-21.32,17.32-38.64,38.64-38.64h29.89c23.69,0,45.2,18.59,36.64,45.93l-7.29,22.97Z"/>
      <path class="cls-3" d="M1695,857.81v33.35h-20.78c-2.92,0-5.29,2.37-5.29,5.29v68.72h-33.35v-68.72c0-21.32,17.31-38.64,38.64-38.64h20.78Z"/>
    </g>
    <g>
      <path class="cls-1" d="M534.8,1029.15v15.83h21.26v10.04h-21.26v16.73h23.97v10.31h-36.63v-63.23h36.63v10.31h-23.97Z"/>
      <path class="cls-1" d="M637.82,1082.06h-12.66l-28.67-43.33v43.33h-12.66v-63.23h12.66l28.67,43.42v-43.42h12.66v63.23Z"/>
      <path class="cls-1" d="M706.84,1018.92v10.22h-16.82v52.92h-12.66v-52.92h-16.83v-10.22h46.31Z"/>
      <path class="cls-1" d="M742.3,1029.15v15.83h21.26v10.04h-21.26v16.73h23.97v10.31h-36.63v-63.23h36.63v10.31h-23.97Z"/>
      <path class="cls-1" d="M823.89,1082.06l-13.93-24.6h-5.97v24.6h-12.66v-63.14h23.7c4.88,0,9.05.86,12.48,2.58,3.44,1.72,6.01,4.04,7.73,6.97,1.72,2.93,2.58,6.2,2.58,9.81,0,4.16-1.21,7.91-3.62,11.26-2.41,3.35-6,5.65-10.76,6.92l15.11,25.6h-14.65ZM803.99,1047.96h10.58c3.44,0,6-.83,7.69-2.49,1.69-1.66,2.53-3.97,2.53-6.92s-.85-5.14-2.53-6.74c-1.69-1.6-4.25-2.4-7.69-2.4h-10.58v18.54Z"/>
      <path class="cls-1" d="M906.52,1047.96c-1.6,2.96-4.1,5.34-7.51,7.15-3.41,1.81-7.7,2.71-12.89,2.71h-10.58v24.24h-12.66v-63.14h23.25c4.89,0,9.05.85,12.48,2.53,3.44,1.69,6.02,4.01,7.73,6.97,1.72,2.96,2.58,6.3,2.58,10.04,0,3.38-.8,6.54-2.4,9.5ZM893.35,1045.2c1.69-1.6,2.53-3.84,2.53-6.74,0-6.15-3.44-9.23-10.31-9.23h-10.04v18.36h10.04c3.5,0,6.09-.8,7.78-2.4Z"/>
      <path class="cls-1" d="M964,1082.06l-13.93-24.6h-5.97v24.6h-12.66v-63.14h23.7c4.88,0,9.05.86,12.48,2.58,3.44,1.72,6.01,4.04,7.73,6.97,1.72,2.93,2.58,6.2,2.58,9.81,0,4.16-1.21,7.91-3.62,11.26-2.41,3.35-6,5.65-10.76,6.92l15.11,25.6h-14.65ZM944.1,1047.96h10.58c3.44,0,6-.83,7.69-2.49,1.69-1.66,2.53-3.97,2.53-6.92s-.85-5.14-2.53-6.74c-1.69-1.6-4.25-2.4-7.69-2.4h-10.58v18.54Z"/>
      <path class="cls-1" d="M1015.65,1018.92v63.14h-12.66v-63.14h12.66Z"/>
      <path class="cls-1" d="M1051.6,1080.43c-3.53-1.51-6.32-3.68-8.37-6.51-2.05-2.83-3.11-6.18-3.17-10.04h13.57c.18,2.59,1.1,4.64,2.76,6.15,1.66,1.51,3.93,2.26,6.83,2.26s5.28-.71,6.97-2.13c1.69-1.42,2.53-3.27,2.53-5.56,0-1.87-.57-3.41-1.72-4.61-1.15-1.21-2.58-2.16-4.3-2.85-1.72-.69-4.09-1.46-7.1-2.31-4.1-1.21-7.43-2.4-9.99-3.57-2.56-1.18-4.77-2.95-6.6-5.34-1.84-2.38-2.76-5.56-2.76-9.54,0-3.74.93-6.99,2.8-9.77,1.87-2.77,4.49-4.9,7.87-6.38,3.38-1.48,7.24-2.22,11.58-2.22,6.51,0,11.8,1.58,15.87,4.75,4.07,3.17,6.32,7.58,6.74,13.25h-13.93c-.12-2.17-1.04-3.97-2.76-5.38-1.72-1.42-4-2.13-6.83-2.13-2.47,0-4.45.63-5.92,1.9-1.48,1.27-2.22,3.11-2.22,5.52,0,1.69.56,3.09,1.67,4.21s2.5,2.02,4.16,2.71c1.66.69,3.99,1.49,7.01,2.4,4.1,1.21,7.45,2.41,10.04,3.62,2.59,1.21,4.82,3.02,6.69,5.43,1.87,2.41,2.8,5.58,2.8,9.5,0,3.38-.88,6.51-2.62,9.41-1.75,2.9-4.31,5.2-7.69,6.92-3.38,1.72-7.39,2.58-12.03,2.58-4.4,0-8.37-.75-11.9-2.26Z"/>
      <path class="cls-1" d="M1123.02,1029.15v15.83h21.26v10.04h-21.26v16.73h23.97v10.31h-36.63v-63.23h36.63v10.31h-23.97Z"/>
    </g>
  </g>
  <g>
    <path class="cls-4" d="M243.39,989.05c36.07-44.36,75.88-89.38,112.73-132.73,2-2.36,11.78-13.11,16.63-19.01h-59.06c-48.71,0-88.69,39.56-88.69,88.27v68.7c0,42.43,30.33,77.91,70.35,86.35l29.23-91.58h-81.19Z"/>
    <path class="cls-2" d="M399.33,839.03l-13.42,40.27c-2.86,8.16-5.66,16.33-8.19,24.55l-7.78,23.33h4.27c.1.04.18.09.3.12h77.34l-131.87,155.25h61.99c48.72,0,88.27-39.56,88.27-88.27v-68.7c0-42.77-30.5-78.48-70.91-86.55Z"/>
  </g>
</svg>